<?xml version="1.0" encoding="utf-8"?>
<!-- Generator: Adobe Illustrator 27.5.0, SVG Export Plug-In . SVG Version: 6.00 Build 0)  -->
<svg version="1.1" xmlns="http://www.w3.org/2000/svg" xmlns:xlink="http://www.w3.org/1999/xlink" x="0px" y="0px"
	 viewBox="0 0 1100 800" style="enable-background:new 0 0 1100 800;" xml:space="preserve">
<g id="background">
	<rect style="fill:#FFFFFF;" width="1100" height="800"/>
</g>
<g id="object">
	<g>
		<g>
			<g>
				<g>
					<polygon style="fill:#3B455A;" points="643.515,580.676 694.112,563.697 681.279,651.114 685.092,726.958 685.238,727.467 
						685.118,727.477 685.126,727.642 675.223,728.301 675.221,728.291 674.852,728.322 654.73,660.269 645.114,588.118 
						645.114,588.118 					"/>
				</g>
				<g>
					<polygon style="fill:#3B455A;" points="675.638,731.765 685.888,731.799 688.257,740.517 687.996,740.586 688.061,740.595 
						670.839,750.145 662.761,750.81 662.002,741.578 664.222,740.047 					"/>
				</g>
			</g>
			<g>
				<g>
					<polygon style="fill:#3B455A;" points="604.156,581.206 614.881,731.816 624.779,732.55 637.059,651.744 656.632,571.478 					
						"/>
				</g>
				<g>
					<polygon style="fill:#3B455A;" points="614.807,735.304 601.466,742.371 602.519,748.6 626.076,745.737 624.952,736.773 					
						"/>
				</g>
			</g>
			<g>
				<g>
					<path style="fill:#7DB5DB;" d="M707.91,605.933c1.056-25.46-21.683-106.423-21.683-106.423l0.003-0.002
						c-2.404-7.607-4.239-15.345-5.338-23.103c-0.782-5.523-17.332-68.293-16.234-68.373c-11.4,0.833-33.381-1.863-41.825,6.234
						c-0.241,0.231-0.471,0.471-0.69,0.721c-6.584,7.508-10.003,22.709-13.116,32.065c-4.089,12.29-7.23,24.895-9.375,37.669
						c-1.876,11.17-2.989,22.451-3.777,33.745c-0.677,9.709-0.14,19.363-0.47,28.914c-0.366,10.573-3.538,22.036-5.903,32.322
						c-2.382,10.359-5.406,20.594-9.59,30.378c11.318,5.009,23.925,6.363,36.302,6.41c12.377,0.047,24.739-1.147,37.114-0.957
						c10.465,0.161,21.059,1.301,31.313-0.797C692.795,613.066,700.323,609.437,707.91,605.933L707.91,605.933z"/>
				</g>
			</g>
			<g>
				<g>
					<g>
						<path style="fill:#EAC5B0;" d="M728.5,436.734c2.979,0.555,10.738-1.521,12.521-4.26c4.115-6.321-5.647-4.375-9.173-4.461
							c0.404-1.224,0.831-2.395,0.987-3.649c0.143-1.15-10.333,1.835-11.342,2.933c-2.423,2.634-1.318,4.623-1.099,7.953
							C723.099,435.681,725.8,436.23,728.5,436.734z"/>
					</g>
				</g>
				<g>
					<polygon style="fill:#7DB5DB;" points="650.117,460.604 692.959,480.289 728.483,437.268 718.004,428.634 694.524,452.29 
						666.204,424.767 639.227,425.935 					"/>
				</g>
			</g>
			<g>
				<polygon style="fill:#7DB5DB;" points="622.143,414.986 614.802,420.657 582.381,477.394 604.96,486.078 618.276,436.868 
					624.065,424.131 				"/>
			</g>
			<g>
				<path style="fill:#305399;" d="M639.011,454.28l-18.575-21.9c-0.43-0.507-1.161-0.635-1.739-0.305l0,0l-14.745,8.449
					c-0.826,0.473-0.936,1.62-0.216,2.242l22.659,19.561c0.443,0.383,1.08,0.444,1.588,0.153L639.011,454.28z"/>
			</g>
			<g>
				<polygon style="fill:#EAC5B0;" points="621.649,459.886 625.769,446.564 620.152,444.554 615.31,453.053 613.094,450.87 
					610.958,462.7 616.515,465.577 				"/>
			</g>
			<g>
				<g>
					<path style="fill:#7DB5DB;" d="M610.789,457.645c-6.241,5.478-12.573,10.886-18.38,16.831
						c-2.624,2.686-6.133,1.494-10.028,2.918l7.526,17.947c15.053-4.632,21.486-15.343,29.621-29.94
						C616.616,462.815,613.702,460.231,610.789,457.645z"/>
				</g>
			</g>
			<g>
				<g>
					<path style="fill:#3B455A;" d="M646.149,379.927c-5.8,0.191-13.477,3.984-15.721,9.74c-1.081,2.772-0.538,5.552-1.812,8.473
						c-2.49,5.768,3.464,15.691-4.346,18.799c-4.015,1.597-8.531,0.218-12.625-1.166c-0.496-0.168-1.015-0.349-1.37-0.734
						c-0.585-0.634-0.548-1.652-0.175-2.43c0.373-0.778,1.015-1.386,1.592-2.027c6.043-6.699,6.425-17.536,9.601-25.715
						c3.169-8.163,8.955-15.904,17.836-18.131c3.771,3.321,6.194,6.649,6.513,11.664L646.149,379.927z"/>
				</g>
				<g>
					<path style="fill:#EAC5B0;" d="M633.675,415.242c-5.089-3.129-7.869-9.194-8.194-15.159
						c-0.325-5.965,1.505-11.853,3.948-17.305c8.128-18.141,31.083-9.199,34.224,7.81
						C666.39,405.411,648.472,424.34,633.675,415.242z"/>
				</g>
				<g>
					<path style="fill:#3B455A;" d="M659.792,429.754c-2.421-2.053-4.779-4.176-5.866-7.502c-1.756-5.375,0.45-12.996,0.956-18.47
						c0.536-5.77,0.939-12.083-2.366-16.842c-2.159-3.108-5.2-4.324-8.707-5.215c-2.401-0.61-2.71,0.28-4.442-1.496
						c-1.328-1.361-1.961-4.638-1.913-6.455c0.082-3.064,1.984-5.867,4.452-7.685c3.798-2.799,7.728-3.705,12.226-2.745
						c15.789,3.368,25.378,15.47,26.176,31.863c0.384,7.879-3.134,15.719-2.542,23.355c0.365,4.714,2.483,8.298,2.517,13.234
						c0.089,12.809,3.117,29.879-0.354,42.28c-0.128,0.459-0.305,0.96-0.724,1.185c-0.855,0.459-1.733-0.554-2.18-1.416
						c-2.608-5.03-5.215-10.061-7.823-15.091c-1.024-1.975-2.06-3.983-2.5-6.164c-1.095-5.43,1.568-11.49-0.981-16.408
						C664.332,433.499,662.035,431.657,659.792,429.754z"/>
				</g>
			</g>
		</g>
		<g>
			
				<rect x="378.927" y="246.363" transform="matrix(0.6423 -0.7664 0.7664 0.6423 -19.4676 454.5107)" style="fill:#587BC9;" width="196.654" height="3.502"/>
		</g>
		<g>
			
				<rect x="295.843" y="171.748" transform="matrix(0.3008 -0.9537 0.9537 0.3008 -71.7948 488.9808)" style="fill:#587BC9;" width="3.502" height="243.416"/>
		</g>
		<g>
			
				<ellipse transform="matrix(0.3343 -0.9425 0.9425 0.3343 -121.22 342.0714)" style="fill:#7DB5DB;" cx="181.524" cy="256.841" rx="41.7" ry="41.7"/>
		</g>
		<g>
			
				<rect x="367.788" y="76.138" transform="matrix(0.9349 -0.3549 0.3549 0.9349 -47.7268 144.3085)" style="fill:#587BC9;" width="3.503" height="252.251"/>
		</g>
		<g>
			
				<rect x="432.951" y="14.153" transform="matrix(0.3848 -0.923 0.923 0.3848 148.6565 480.4055)" style="fill:#587BC9;" width="3.502" height="229.072"/>
		</g>
		<g>
			
				<rect x="523.789" y="118.357" transform="matrix(0.8972 -0.4417 0.4417 0.8972 13.0055 296.076)" style="fill:#587BC9;" width="237.116" height="3.502"/>
		</g>
		<g>
			
				<rect x="650.49" y="110.239" transform="matrix(0.5237 -0.8519 0.8519 0.5237 104.9373 670.6816)" style="fill:#587BC9;" width="3.503" height="262.518"/>
		</g>
		<g>
			
				<rect x="735.201" y="226.49" transform="matrix(0.7795 -0.6264 0.6264 0.7795 47.9953 592.8351)" style="fill:#587BC9;" width="261.814" height="3.502"/>
		</g>
		<g>
			
				<ellipse transform="matrix(0.1034 -0.9946 0.9946 0.1034 330.7694 691.7679)" style="fill:#7DB5DB;" cx="549.092" cy="162.414" rx="73.857" ry="73.857"/>
		</g>
		<g>
			
				<ellipse transform="matrix(0.4807 -0.8769 0.8769 0.4807 374.5083 924.8957)" style="fill:#7DB5DB;" cx="968.155" cy="146.246" rx="51.843" ry="51.844"/>
		</g>
		<g>
			
				<ellipse transform="matrix(0.103 -0.9947 0.9947 0.103 211.1339 405.4301)" style="fill:#305399;" cx="330.365" cy="85.648" rx="55.894" ry="55.894"/>
		</g>
		<g>
			
				<ellipse transform="matrix(0.5325 -0.8464 0.8464 0.5325 292.6588 665.3815)" style="fill:#587BC9;" cx="748.713" cy="67.741" rx="40.972" ry="40.972"/>
		</g>
		<g>
			
				<ellipse transform="matrix(0.7071 -0.7071 0.7071 0.7071 21.2528 621.3283)" style="fill:#305399;" cx="760.636" cy="285.01" rx="109.918" ry="109.918"/>
		</g>
		<g>
			
				<ellipse transform="matrix(0.9916 -0.1296 0.1296 0.9916 -35.7892 55.3878)" style="fill:#587BC9;" cx="407.65" cy="302.662" rx="62.098" ry="62.098"/>
		</g>
		<g>
			<g>
				<g>
					<path style="fill:#B97262;" d="M530.893,360.092c0,0,2.66-5.68,2.702-5.771c0.986-2.106-2.012-9.508-2.534-11.904
						c-0.298-1.369-6.4,2.471-6.868,3.359c-0.799,1.516-0.119,5.879-0.259,7.775l-3.145,1.809l1.138,4.515L530.893,360.092z"/>
				</g>
				<g>
					<g>
						<g>
							<g>
								<polygon style="fill:#BCBEC0;" points="488.437,581.924 490.961,640.465 483.562,740.005 472.491,740.792 459.039,650.386 
									440.431,573.885 								"/>
							</g>
							<g>
								<polygon style="fill:#3B455A;" points="473.083,748.224 489.703,748.224 490.391,742.734 484.433,738.619 472.461,739.469 
																	"/>
							</g>
						</g>
						<g>
							<g>
								<polygon style="fill:#BCBEC0;" points="410.064,564.513 407.634,608.763 414.843,740.336 425.929,740.89 442.543,654.596 
									457.197,559.962 								"/>
							</g>
							<g>
								<polygon style="fill:#3B455A;" points="425.477,748.65 409.297,749.328 407.65,744.663 413.943,738.969 425.931,739.568 
																	"/>
							</g>
						</g>
						<g>
							<g>
								<path style="fill:#3B455A;" d="M474.52,430.851l-34.593-3.706c0,0-19.244,2.056-32.302,47.758
									c-7.265,25.427-9.476,65.487-10.008,96.028c0.817,4.357,5.564,23.44,25.633,20.203c34.466-5.559,52.81-11.118,67.819-8.339
									c12.785,2.78,11.704-14.823,10.299-28.257l-5.095-41.565L474.52,430.851z"/>
							</g>
						</g>
						<g>
							<g>
								<path style="fill:#B97262;" d="M467.839,387.792c-8.719-1.922-17.693-3.644-26.422-1.916
									c-1.912,0.379-3.964,1.044-5.001,2.694c-0.402,0.639-0.614,1.377-0.811,2.106c-2.203,8.188-4.997,20.325,0.393,27.868
									c1.028,1.439,2.408,2.58,3.892,3.508c1.983,1.239,4.178,2.082,6.45,2.531c-0.47,2.035-1.124,4.029-1.953,5.946
									c1.996,3.01,11.307,3.37,13.029,0.485c0.096-2.497,0.193-4.994,0.289-7.49c1.133-0.458,2.228-1.015,3.257-1.692
									c3.979-2.621,6.601-6.598,8.124-11.048c1.658-4.845,3.992-9.451,5.507-14.389c0.552-1.799,0.987-3.852,0.041-5.479
									c-1.008-1.732-3.182-2.321-5.138-2.756C468.946,388.037,468.393,387.914,467.839,387.792z"/>
							</g>
							<g>
								<path style="fill:#3B455A;" d="M471.66,410.524c4.189-4.302,9.091-10.317,9.47-15.779
									c0.313-4.518-0.312-10.679-2.843-14.581c-2.369-3.651-8.425-5.656-12.026-7.772c-3.395-1.994-6.79-3.988-10.185-5.983
									c-0.706-0.415-1.432-0.837-2.239-0.977c-0.954-0.166-1.927,0.078-2.864,0.321c-8.024,2.074-16.048,4.148-24.072,6.221
									c-1.541,0.398-3.298,0.98-3.865,2.468c-0.345,0.905-0.142,1.915,0.065,2.862c0.911,4.165,2.66,8.423,3.093,12.643
									c0.666,3.332,0.538,6.313,2.973,8.749c2.292,2.293,5.341,3.545,7.174,6.352c1.323,2.026,1.833,4.467,2.87,6.654
									c4.699,9.907,23.723,7.267,30.308,0.946C470.189,412.003,470.913,411.291,471.66,410.524z"/>
							</g>
						</g>
					</g>
					<g>
						<polygon style="fill:#3B455A;" points="461.065,435.377 493.939,423.354 520.693,358.834 532.085,359.513 519.711,431.889 
							502.97,447.53 455.057,471.138 						"/>
					</g>
				</g>
			</g>
			<g>
				<g>
					<g>
						<path style="fill:#B97262;" d="M347.613,400.345c-1.604-2.3-2.811-9.634-1.182-12.181c3.761-5.879,5.842,3.093,7.258,6.034
							c0.878-0.807,1.703-1.614,2.7-2.223c0.915-0.559,2.392,9.412,1.851,10.681c-1.297,3.047-3.395,2.873-6.287,3.959
							C350.56,404.497,349.067,402.429,347.613,400.345z"/>
					</g>
				</g>
				<g>
					<polygon style="fill:#3B455A;" points="425.553,466.525 372.846,456.256 349.826,406.139 359.739,398.419 384.598,433.369 
						411.587,432.966 436.51,434.734 					"/>
				</g>
			</g>
		</g>
		<g>
			<g>
				<g>
					<path style="fill:#EAC5B0;" d="M296.851,437.58c0,0,2.914-5.554,2.96-5.643c1.081-2.06-0.371-13.227-0.784-15.645
						c-0.236-1.381-7.715,5.817-8.223,6.683c-0.866,1.478-0.385,5.868-0.61,7.756l-3.223,1.665l0.932,4.562L296.851,437.58z"/>
				</g>
				<g>
					<g>
						<polygon style="fill:#3B455A;" points="169.515,734.19 168.638,741.01 181.4,749.583 189.097,743.64 183.154,735.944 
							170.392,727.371 						"/>
					</g>
					<g>
						<g>
							<polygon style="fill:#3B455A;" points="169.084,731.901 178.926,644.931 167.084,547.567 169.747,526.856 222.639,524.847 
								224.547,558.557 215.668,645.064 182.263,736.346 							"/>
						</g>
					</g>
					<g>
						<polygon style="fill:#305399;" points="227.603,428.619 246.475,432.472 270.775,457.933 286.971,435.407 299.256,436.216 
							273.658,487.588 241.496,471.138 						"/>
					</g>
					<g>
						<g>
							<polygon style="fill:#3B455A;" points="261.448,534.593 261.587,622.358 243.922,735.34 231.206,735.213 224.217,630.731 
								207.858,526.156 							"/>
						</g>
						<g>
							<polygon style="fill:#3B455A;" points="231.226,740.575 244.908,747.588 251.852,740.781 245.045,733.837 231.294,733.7 
															"/>
						</g>
					</g>
					<g>
						<g>
							<path style="fill:#305399;" d="M161.611,564.442c0.121-3.803,0.333-6.977,0.363-8.111
								c0.272-10.202,1.181-20.382,2.459-30.512c1.145-9.078,2.589-31.614,4.143-40.635c1.283-7.449,5.752-26.042,8.982-32.951
								c8.031-17.182,5.55-18.769,40.829-23.871c15.462-2.236,19.116,7.4,31.757,18.48c1.247,1.093,1.178,7.6,1.467,9.323
								c0.509,3.035,1.055,6.064,1.681,9.079c0.492,2.37,1.034,4.732,1.643,7.079l-0.001-0.001c0,0,10.612,48.291,17.629,58.548
								c7.017,10.256,21.515,24.595-2.736,33.35c-4.298,1.389-8.622,2.711-13.096,3.418c0,0-19.834-2.204-30.033-2.128
								c-9.394,0.07-18.827,1.021-28.062,2.613c-6.176,1.032-12.478,2.532-18.002,5.418c-5.271,2.753-9.075,6.803-14.422,9.654
								c-0.507,0.27-1.062,0.549-1.638,0.47C161.5,583.24,161.355,572.447,161.611,564.442z"/>
						</g>
					</g>
					<g>
						<g>
							<path style="fill:#EAC5B0;" d="M215.219,432.81c-1.443,1.363-5.367,2.899-10.06,2.545c-0.946-0.071-1.766-0.71-2.032-1.62
								c-0.749-2.555-1.325-5.16-1.724-7.792c-3.482-0.139-7.622-0.68-9.179-3.798c-0.491-0.982-0.637-2.094-0.776-3.183
								c-0.575-4.5-1.149-9.001-1.724-13.501c-0.199-1.557-0.395-3.162,0.02-4.675c0.728-2.656,3.166-4.469,5.621-5.716
								c6.265-3.182,13.917-3.965,20.38-1.207c1.72,0.734,3.381,1.741,4.5,3.239c1.726,2.31,1.911,5.386,2.03,8.267
								c0.11,2.659,0.22,5.318,0.33,7.978c0.126,3.059,0.042,6.605-2.359,8.505c-1.275,1.008-3.035,1.369-4.089,2.606
								C214.297,426.637,215.665,429.979,215.219,432.81z"/>
						</g>
						<g>
							<path style="fill:#3B455A;" d="M240.317,378.454c0.322-1.267,0.706-2.512,1.193-3.719c1.054-2.613,2.594-5.049,3.246-7.791
								c0.652-2.742,0.165-6.037-2.13-7.672c-1.481-1.055-3.409-1.218-5.228-1.196c-5.992,0.072-11.957,1.784-17.074,4.903
								c-4.874,2.971-8.922,6.654-14.855,6.302c-5.575-0.331-8.954,1.54-13.607,5.011c-5.036,3.756-12.483,6.565-16.728,10.988
								c-1.772,1.847-2.907,4.23-3.606,6.693c-2.421,8.532,0.569,18.351,7.333,24.087c1.518,1.287,3.194,2.374,4.913,3.376
								c3.558,2.074,7.848,4.668,11.849,4.612c-0.922-3.311-7.095-12.746-5.4-16.213c2.69-5.501,12.197-6.792,17.485-7.266
								c5.768-0.517,11.774,1.835,17.395,1.005c4.045-0.598,8.393-4.007,11.066-7.014
								C239.464,390.847,239.142,383.078,240.317,378.454z"/>
						</g>
					</g>
					<g>
						<polygon style="fill:#305399;" points="187.53,435.922 159.774,443.05 126.351,391.097 112.245,394.905 135.759,469.695 
							189.869,476.209 						"/>
					</g>
				</g>
			</g>
		</g>
		<g>
			<path style="fill:#587BC9;" d="M281.837,429.192l12.796,2.8c1.255,0.274,2.518-0.424,2.953-1.632l11.23-31.215
				c0.522-1.45-0.348-3.029-1.853-3.362l-15.472-3.426c-1.336-0.296-2.667,0.512-3.022,1.833l-8.555,31.841
				C279.535,427.44,280.411,428.88,281.837,429.192z"/>
		</g>
		<g>
			<path style="fill:#EAC5B0;" d="M115.612,394.483c0,0-4.748-5.584-4.824-5.673c-1.761-2.071-1.577-10.559-1.96-13.224
				c-0.219-1.521,7.233,1.446,8.027,2.31c1.355,1.473,2.319,6.274,3.167,8.278l3.777,1.348l0.569,5.049L115.612,394.483z"/>
		</g>
		<g>
			<path style="fill:#FFFFFF;" d="M179.385,293.839c10.204,0.655,19.709-2.883,26.832-9.134c-0.935-3.528-2.067-6.981-3.386-10.229
				c-2.222-5.474-6.359-9.837-11.402-12.356c0.04-0.062,0.089-0.119,0.128-0.181c2.188-3.52,2.854-7.61,2.82-11.595
				c-0.031-3.794-0.714-7.7-3.027-10.898c-2.313-3.199-6.527-5.545-10.87-5.152c-4.663,0.421-8.416,3.869-10.011,7.711
				c-1.594,3.842-1.433,8.036-1.118,12.098c0.226,2.914,1.025,5.87,2.413,8.34c-3.067,1.851-5.782,4.566-8.375,7.914
				c-2.653,3.424-2.544,3.584-4.215,7.62c-0.821,1.984-1.636,4.038-2.341,6.295C162.834,289.734,170.656,293.279,179.385,293.839z"
				/>
		</g>
		<g>
			<path style="fill:#FFFFFF;" d="M328.239,133.73c13.488,0.866,26.051-3.811,35.465-12.073c-1.236-4.663-2.733-9.227-4.476-13.52
				c-2.937-7.235-8.405-13.003-15.071-16.332c0.053-0.081,0.118-0.157,0.169-0.239c2.892-4.652,3.773-10.058,3.728-15.326
				c-0.041-5.014-0.944-10.177-4.001-14.405c-3.057-4.228-8.627-7.328-14.367-6.81c-6.163,0.557-11.123,5.114-13.232,10.192
				c-2.107,5.079-1.895,10.621-1.478,15.99c0.299,3.851,1.355,7.759,3.19,11.023c-4.054,2.446-7.642,6.035-11.07,10.461
				c-3.507,4.526-3.363,4.737-5.571,10.072c-1.085,2.623-2.162,5.337-3.095,8.32C306.363,128.304,316.702,132.989,328.239,133.73z"
				/>
		</g>
		<g>
			<path style="fill:#FFFFFF;" d="M404.497,357.9c14.506,0.932,28.017-4.098,38.143-12.985c-1.329-5.016-2.939-9.924-4.814-14.541
				c-3.159-7.782-9.039-13.984-16.208-17.565c0.057-0.088,0.127-0.169,0.182-0.257c3.111-5.003,4.057-10.817,4.009-16.483
				c-0.045-5.393-1.015-10.946-4.304-15.493c-3.287-4.547-9.278-7.882-15.452-7.324c-6.629,0.599-11.963,5.5-14.231,10.962
				c-2.266,5.462-2.038,11.423-1.59,17.197c0.322,4.142,1.457,8.345,3.431,11.856c-4.36,2.631-8.219,6.491-11.906,11.251
				c-3.772,4.868-3.617,5.095-5.992,10.833c-1.167,2.821-2.325,5.74-3.328,8.948C380.969,352.064,392.089,357.103,404.497,357.9z"/>
		</g>
		<g>
			<path style="fill:#FFFFFF;" d="M965.53,188.56c12.519,0.804,24.18-3.537,32.919-11.207c-1.147-4.329-2.536-8.565-4.155-12.549
				c-2.726-6.716-7.802-12.069-13.989-15.16c0.049-0.076,0.11-0.146,0.157-0.222c2.685-4.318,3.502-9.336,3.46-14.226
				c-0.038-4.654-0.876-9.447-3.714-13.371c-2.837-3.924-8.007-6.802-13.336-6.321c-5.721,0.517-10.325,4.747-12.282,9.461
				c-1.956,4.714-1.759,9.859-1.372,14.842c0.278,3.575,1.258,7.202,2.961,10.232c-3.763,2.271-7.093,5.602-10.275,9.71
				c-3.255,4.201-3.121,4.397-5.171,9.349c-1.008,2.434-2.007,4.954-2.873,7.723C945.224,183.523,954.821,187.872,965.53,188.56z"/>
		</g>
		<g>
			<path style="fill:#FFFFFF;" d="M545.421,226.142c17.509,1.125,33.817-4.947,46.038-15.673
				c-1.605-6.054-3.548-11.979-5.811-17.551c-3.813-9.392-10.911-16.879-19.564-21.201c0.068-0.106,0.153-0.204,0.219-0.311
				c3.755-6.039,4.897-13.056,4.839-19.895c-0.054-6.509-1.226-13.212-5.194-18.7c-3.968-5.488-11.199-9.513-18.651-8.84
				c-8.001,0.723-14.44,6.638-17.177,13.231c-2.735,6.592-2.459,13.788-1.919,20.757c0.388,4.999,1.759,10.072,4.141,14.31
				c-5.263,3.176-9.92,7.835-14.37,13.579c-4.553,5.876-4.365,6.149-7.232,13.075c-1.409,3.405-2.806,6.928-4.018,10.801
				C517.024,219.098,530.445,225.18,545.421,226.142z"/>
		</g>
		<g>
			<path style="fill:#FFFFFF;" d="M746.612,101.819c10.018,0.643,19.349-2.83,26.341-8.968c-0.918-3.464-2.03-6.854-3.324-10.042
				c-2.182-5.374-6.243-9.658-11.194-12.131c0.039-0.061,0.088-0.117,0.126-0.178c2.148-3.455,2.802-7.47,2.769-11.383
				c-0.031-3.724-0.701-7.559-2.972-10.699c-2.27-3.14-6.407-5.443-10.671-5.058c-4.578,0.414-8.262,3.798-9.828,7.57
				c-1.565,3.772-1.407,7.889-1.098,11.877c0.222,2.86,1.006,5.763,2.369,8.188c-3.011,1.817-5.676,4.483-8.222,7.77
				c-2.605,3.362-2.498,3.518-4.138,7.481c-0.806,1.948-1.606,3.964-2.299,6.18C730.364,97.788,738.043,101.268,746.612,101.819z"/>
		</g>
		<g>
			<path style="fill:#FFFFFF;" d="M754.702,384.093c28.305,1.818,54.669-7.997,74.426-25.337
				c-2.594-9.786-5.735-19.365-9.393-28.372c-6.163-15.184-17.638-27.287-31.627-34.274c0.111-0.171,0.248-0.329,0.355-0.502
				c6.07-9.763,7.917-21.107,7.823-32.163c-0.087-10.522-1.981-21.358-8.397-30.23c-6.414-8.872-18.104-15.379-30.151-14.291
				c-12.934,1.169-23.343,10.731-27.768,21.39c-4.421,10.658-3.976,22.29-3.103,33.557c0.628,8.082,2.843,16.282,6.694,23.134
				c-8.508,5.134-16.037,12.666-23.231,21.953c-7.36,9.499-7.057,9.941-11.691,21.138c-2.278,5.504-4.537,11.201-6.495,17.46
				C708.793,372.705,730.49,382.538,754.702,384.093z"/>
		</g>
		<g>
			<g id="XMLID_896_">
				<g id="XMLID_898_">
					<g id="XMLID_912_">
						<g id="XMLID_914_">
							<g>
								<path style="fill:#3B455A;" d="M913.471,728.134c1.22-1.343,2.643-2.075,4.251-1.822c1.544,0.243,2.934,1.29,3.571,2.69
									c0.434,0.955,0.526,2.02,0.612,3.061c0.445,5.391,0.405,18.19-6.776,20.033c-3.018,0.774-5.514-1.37-6.32-4.08
									C907.596,743.933,909.393,732.624,913.471,728.134z"/>
							</g>
						</g>
						<g id="XMLID_913_">
							<g>
								<path style="fill:#EAC5B0;" d="M910.917,646.809l0.376,32.881c-0.437,14.605,1.843,29.292,1.406,43.898
									c-0.101,3.358-0.976,6.901-0.13,10.23c0.828,3.256,3.473,3.832,6.19,2.183c3.639-2.209,3.052-7.368,3.658-11.132
									c1.665-10.342,3.618-20.637,5.357-30.967c0.852-5.065-0.905-12.162-0.522-17.287c0-0.003,5.312-27.557,5.312-27.557
									L910.917,646.809z"/>
							</g>
						</g>
					</g>
					<g id="XMLID_911_">
						<g>
							<polygon style="fill:#BCBEC0;" points="948.486,593.68 934.175,657.251 931.135,717.284 908.443,716.774 902.273,548.852 
								946.262,549.651 							"/>
						</g>
					</g>
					<g id="XMLID_906_">
						<g id="XMLID_908_">
							<g id="XMLID_910_">
								<g>
									<path style="fill:#3B455A;" d="M881.014,726.94c1.273-1.272,2.723-1.921,4.315-1.573c1.529,0.334,2.869,1.464,3.444,2.903
										c0.392,0.981,0.438,2.052,0.479,3.1c0.214,5.421-0.374,18.228-7.609,19.649c-3.041,0.596-5.438-1.696-6.124-4.456
										C874.482,742.405,876.757,731.192,881.014,726.94z"/>
								</g>
							</g>
							<g id="XMLID_909_">
								<g>
									<path style="fill:#EAC5B0;" d="M892.974,651.425l-1.926,32.828c-0.157,9.123-1.373,18.176-2.317,27.237
										c-0.877,8.417,0.488,17.184-3.911,24.839c-1.379,2.4-4.168,3.998-6.116,1.082c-1.502-2.248-0.61-5.997-0.898-8.547
										c-1.176-10.409-2.641-20.783-3.891-31.183c-0.613-5.099,1.477-12.107,1.337-17.244c0-0.003-4.007-27.774-4.007-27.774
										L892.974,651.425z"/>
								</g>
							</g>
						</g>
						<g id="XMLID_907_">
							<g>
								<polygon style="fill:#BCBEC0;" points="864.258,589.793 862.411,651.502 872.096,713.905 895.178,714.596 894.159,647.06 
									906.374,591.053 910.474,554.392 873.848,550.072 								"/>
							</g>
						</g>
					</g>
					<g id="XMLID_905_">
						<g>
							<polygon style="fill:#587BC9;" points="893.232,423.781 932.691,422.84 955.569,465.388 947.438,505.241 945.99,552.934 
								889.703,553.702 871.183,550.695 876.1,499.737 873.281,431.665 							"/>
						</g>
					</g>
					<g id="XMLID_904_">
						<g>
							<polygon style="fill:#587BC9;" points="934,425.774 966.031,474.561 961.217,501.74 911.608,536.105 902.273,527.944 
								935.439,486.018 934.152,459.524 							"/>
						</g>
					</g>
					<g id="XMLID_899_">
						<g id="XMLID_903_">
							<g>
								<path style="fill:#EAC5B0;" d="M898.404,386.96c7.768-16.557,29.773-7.666,32.802,8.149
									c1.976,10.316-7.134,22.445-17.792,24.198c-0.088,0.388-1.227,3.746-1.262,4.057c-0.18,1.602-0.548,3.161-0.958,4.738
									c-0.153,0.588-9.022-2.129-10.01-2.437c-0.346-0.108-0.73-0.246-0.888-0.563c-0.304-0.608,1.535-5.213,1.67-5.838
									c0.159-0.737,0.317-1.475,0.476-2.212c-4.836-3.042-7.485-8.696-7.802-14.195
									C894.322,397.331,896.07,391.935,898.404,386.96z"/>
							</g>
						</g>
						<g id="XMLID_900_">
							<g id="XMLID_902_">
								<g>
									<path style="fill:#3B455A;" d="M914.889,373.018c1.084,1.367,1.377,3.142,1.549,4.835c0.103,1.011,0.173,2.053-0.144,3.009
										c-1.264,3.813-5.113,3.191-8.243,4.126c-3.86,1.153-7.352,3.667-9.773,6.734c-3.793,4.802-3.051,11.588-2.351,17.412
										c0.247,2.052,0.857,5.13-0.888,6.748c-1.774,1.645-5.391,0.971-7.18-0.166c-1.635-1.039-2.883-2.77-4.745-3.292
										c-1.971-0.552-4.778,0.038-5.514-1.905c-0.205-0.54-0.161-1.169-0.439-1.674c-0.938-1.705-3.897-0.145-5.339-1.432
										c-0.887-0.791-0.723-2.256-0.273-3.38c0.45-1.125,1.124-2.241,1.025-3.444c-0.085-1.035-0.73-1.915-1.083-2.886
										c-0.696-1.918-0.132-4.257,1.363-5.652c2.78-2.594,7.504-1.535,10.442-3.94c1.531-1.253,2.283-3.217,3.004-5.074
										c0.72-1.858,1.555-3.808,3.169-4.946c1.994-1.405,4.595-0.849,6.597-2.555c1.176-1.002,2.037-2.379,3.327-3.222
										c1.7-1.112,4.86-1.767,6.874-2.21C909.461,369.401,912.837,370.431,914.889,373.018z"/>
								</g>
							</g>
							<g id="XMLID_901_">
								<g>
									<path style="fill:#3B455A;" d="M926.289,402.006c-0.505,5.671-3.975,11.486-1.905,16.749
										c2.089,5.311,8.55,6.924,14.111,7.789c0.915,0.142,12.602,2.433,12.676,2.215c1.308-3.847,2.655-7.769,5.088-11.008
										c2.433-3.24,6.187-5.736,10.159-5.557c-1.117-0.32-1.541-1.776-1.283-2.936c0.258-1.161,0.981-2.155,1.454-3.245
										c1.163-2.681,0.671-6.008-1.21-8.183c-3.754-4.339-11.494-3.539-14.59-8.392c-1.919-3.009-1.222-6.999-2.02-10.506
										c-1.543-6.782-8.555-8.922-13.587-12.452c-5.313-3.726-10.448-6.008-17.085-5.625c-8.227,0.476-15.122,8.056-12.84,16.136
										c2.927,10.362,19.003,11.228,20.909,21.635C926.372,399.743,926.39,400.871,926.289,402.006z"/>
								</g>
							</g>
						</g>
					</g>
				</g>
				<g id="XMLID_897_">
					<g>
						<polygon style="fill:#FFFFFF;" points="921.018,423.556 908.777,440.857 903.023,440.386 893.432,422.84 						"/>
					</g>
				</g>
			</g>
			<g id="XMLID_895_">
				<g>
					<polygon style="fill:#EAC5B0;" points="902.022,533.335 902.236,539.991 890.488,544.267 883.718,539.137 883.713,531.389 
						890.25,531.025 890.455,529.321 892.595,527.944 					"/>
				</g>
			</g>
			<g>
				<path style="fill:#587BC9;" d="M893.432,422.84l-22.249,1.209c0,0-24.973,12.28-26.626,11.358
					c-1.652-0.922-28.638-54.95-28.638-54.95l-13.217,4.292l16.522,61.804l15.971,16.513l45.159-7.516L893.432,422.84z"/>
			</g>
			<g>
				<path style="fill:#EAC5B0;" d="M814.843,380.911c0,0,0-6.272,0-6.372c0-2.326-5.854-7.758-7.343-9.707
					c-0.85-1.113-4.748,4.952-4.795,5.955c-0.081,1.711,2.385,5.375,3.063,7.151l-2.081,2.972l2.945,3.607L814.843,380.911z"/>
			</g>
		</g>
	</g>
</g>
</svg>
